<?xml version="1.0" standalone="no"?>
<!DOCTYPE svg PUBLIC "-//W3C//DTD SVG 20010904//EN"
 "http://www.w3.org/TR/2001/REC-SVG-20010904/DTD/svg10.dtd">
<svg version="1.0" xmlns="http://www.w3.org/2000/svg"
 width="1000.000000pt" height="1000.000000pt" viewBox="0 0 1000.000000 1000.000000"
 preserveAspectRatio="xMidYMid meet">
<metadata>
Created by potrace 1.14, written by Peter Selinger 2001-2017
</metadata>
<g transform="translate(0.000000,1000.000000) scale(0.100000,-0.100000)"
fill="#000000" stroke="none">
<path d="M945 7478 c-3 -7 -4 -238 -3 -513 l3 -500 798 -3 797 -2 0 -2215 0
-2215 585 0 585 0 0 2215 0 2215 795 0 795 0 0 515 0 515 -2175 0 c-1731 0
-2177 -3 -2180 -12z"/>
<path d="M7566 6054 c-362 -56 -713 -243 -974 -519 l-82 -86 0 265 0 266 -520
0 -520 0 0 -1975 0 -1975 520 0 520 0 0 1309 0 1309 50 55 c223 244 685 414
1030 378 58 -6 122 -14 143 -17 l37 -7 0 507 0 506 -57 -1 c-32 -1 -98 -7
-147 -15z"/>
<path d="M8115 3250 c-346 -69 -592 -413 -535 -750 35 -209 175 -398 364 -490
106 -52 180 -70 291 -70 111 0 184 18 295 72 104 50 227 167 283 268 89 163
108 345 53 514 -91 277 -352 468 -636 465 -41 -1 -93 -5 -115 -9z"/>
</g>
</svg>
